<?xml version="1.0" standalone="no"?>
<!DOCTYPE svg PUBLIC "-//W3C//DTD SVG 20010904//EN"
 "http://www.w3.org/TR/2001/REC-SVG-20010904/DTD/svg10.dtd">
<svg version="1.0" xmlns="http://www.w3.org/2000/svg"
 width="50.000000pt" height="50.000000pt" viewBox="0 0 50.000000 50.000000"
 preserveAspectRatio="xMidYMid meet">

<g transform="translate(0.000000,50.000000) scale(0.100000,-0.100000)"
fill="#000000" stroke="none">
<path d="M400 381 c-14 -5 -86 -36 -162 -70 -75 -33 -140 -61 -145 -61 -4 0
-19 9 -33 20 -52 40 -66 11 -30 -60 18 -35 25 -40 55 -40 20 0 61 9 92 20 31
11 59 18 61 15 2 -2 -1 -32 -7 -66 -6 -35 -9 -65 -7 -67 3 -2 13 -1 24 2 13 4
35 40 62 100 42 92 43 94 101 122 33 15 67 36 76 46 15 17 14 19 -20 33 -20 8
-38 15 -39 14 -2 0 -14 -4 -28 -8z"/>
<path d="M117 363 c-23 -6 -18 -21 15 -40 22 -14 31 -14 57 -3 48 20 42 27
-39 44 -8 2 -23 1 -33 -1z"/>
</g>
</svg>
